<svg version="1.1" id="Layer_1" xmlns="http://www.w3.org/2000/svg" xmlns:xlink="http://www.w3.org/1999/xlink" x="0px" y="0px"
	 width="100%" viewBox="0 0 591 589" enable-background="new 0 0 591 589" xml:space="preserve">
<path fill="#000101" opacity="1.000000" stroke="none" 
	d="
M278.000000,590.000000 
	C185.333328,590.000000 93.166664,590.000000 1.000000,590.000000 
	C1.000000,393.666656 1.000000,197.333328 1.000000,1.000000 
	C198.000000,1.000000 395.000000,1.000000 592.000000,1.000000 
	C592.000000,197.333328 592.000000,393.666656 592.000000,590.000000 
	C487.500000,590.000000 383.000000,590.000000 278.000000,590.000000 
M246.475067,259.055511 
	C230.675217,248.291458 213.234787,241.695496 194.408997,238.698227 
	C176.004913,235.768097 157.634415,232.759430 140.135239,225.953384 
	C116.048035,216.585052 97.680565,201.417480 89.046860,176.184692 
	C83.207481,159.118591 83.425598,141.482346 83.895988,123.808060 
	C83.941254,122.107307 83.902031,120.404312 83.902031,117.735405 
	C82.707092,119.128685 82.207031,119.563400 81.892632,120.105736 
	C80.891991,121.831856 79.938889,123.586624 79.005684,125.350563 
	C72.034538,138.527420 67.051926,152.435364 64.087715,167.029129 
	C56.361977,205.065414 63.920788,239.376938 89.251648,269.310669 
	C107.834785,291.270477 131.461502,306.340576 157.314362,317.935272 
	C183.815262,329.820557 202.895691,348.081512 211.456497,376.289459 
	C213.231583,382.138367 214.365982,388.181763 215.837128,394.308105 
	C217.304657,394.191650 218.613144,394.125000 219.912735,393.979218 
	C248.832947,390.735992 277.415314,392.269226 305.444794,400.450439 
	C323.305084,405.663452 340.953949,411.629089 358.906403,416.485352 
	C367.083313,418.697266 375.765289,419.041901 383.977783,420.199615 
	C385.010071,408.925293 385.293671,398.750183 386.971802,388.810486 
	C392.281433,357.360962 409.498901,334.348297 438.315704,320.759857 
	C460.106232,310.484650 481.018646,299.040955 499.007172,282.831421 
	C517.495911,266.171143 531.019104,246.277390 536.805786,221.831650 
	C544.912048,187.586823 537.649597,155.506271 522.084045,124.774277 
	C520.955444,122.546013 519.563354,120.451195 518.293762,118.294342 
	C517.513916,128.100510 517.849243,137.522308 517.455383,146.913498 
	C515.808105,186.187515 496.847900,212.933960 459.636932,226.551971 
	C442.486542,232.828491 424.625885,235.652756 406.765717,238.752213 
	C359.436249,246.965759 326.848175,273.684753 308.591156,317.951782 
	C305.590881,325.226440 303.391632,332.831451 300.393372,341.527435 
	C291.788605,307.381561 275.515930,279.360413 246.475067,259.055511 
M192.793808,425.066498 
	C233.026077,417.967682 272.477417,421.273285 310.949524,434.756348 
	C336.812561,443.820435 363.045410,450.224823 390.642670,448.058533 
	C432.884918,444.742615 465.988770,425.650391 488.949280,389.716278 
	C490.527557,387.246185 491.415070,384.334717 493.043457,380.689056 
	C491.082428,381.438080 490.364685,381.535400 489.893982,381.928497 
	C488.892426,382.765045 488.007263,383.743713 487.095123,384.684235 
	C464.594452,407.885681 437.461487,421.906586 405.245361,425.540649 
	C378.123383,428.600067 352.090057,423.093903 326.940186,413.670319 
	C296.524628,402.273712 265.389404,396.511810 232.959457,399.156586 
	C188.994370,402.742126 150.481049,419.118225 118.047806,449.273529 
	C116.798576,450.435028 115.764076,451.827454 114.629517,453.112274 
	C114.887238,453.481384 115.144951,453.850494 115.402672,454.219635 
	C139.696060,441.237030 164.758591,430.342621 192.793808,425.066498 
z"/>
<path fill="#FDFDFD" opacity="1.000000" stroke="none" 
	d="
M246.795227,259.218445 
	C275.515930,279.360413 291.788605,307.381561 300.393372,341.527435 
	C303.391632,332.831451 305.590881,325.226440 308.591156,317.951782 
	C326.848175,273.684753 359.436249,246.965759 406.765717,238.752213 
	C424.625885,235.652756 442.486542,232.828491 459.636932,226.551971 
	C496.847900,212.933960 515.808105,186.187515 517.455383,146.913498 
	C517.849243,137.522308 517.513916,128.100510 518.293762,118.294342 
	C519.563354,120.451195 520.955444,122.546013 522.084045,124.774277 
	C537.649597,155.506271 544.912048,187.586823 536.805786,221.831650 
	C531.019104,246.277390 517.495911,266.171143 499.007172,282.831421 
	C481.018646,299.040955 460.106232,310.484650 438.315704,320.759857 
	C409.498901,334.348297 392.281433,357.360962 386.971802,388.810486 
	C385.293671,398.750183 385.010071,408.925293 383.977783,420.199615 
	C375.765289,419.041901 367.083313,418.697266 358.906403,416.485352 
	C340.953949,411.629089 323.305084,405.663452 305.444794,400.450439 
	C277.415314,392.269226 248.832947,390.735992 219.912735,393.979218 
	C218.613144,394.125000 217.304657,394.191650 215.837128,394.308105 
	C214.365982,388.181763 213.231583,382.138367 211.456497,376.289459 
	C202.895691,348.081512 183.815262,329.820557 157.314362,317.935272 
	C131.461502,306.340576 107.834785,291.270477 89.251648,269.310669 
	C63.920788,239.376938 56.361977,205.065414 64.087715,167.029129 
	C67.051926,152.435364 72.034538,138.527420 79.005684,125.350563 
	C79.938889,123.586624 80.891991,121.831856 81.892632,120.105736 
	C82.207031,119.563400 82.707092,119.128685 83.902031,117.735405 
	C83.902031,120.404312 83.941254,122.107307 83.895988,123.808060 
	C83.425598,141.482346 83.207481,159.118591 89.046860,176.184692 
	C97.680565,201.417480 116.048035,216.585052 140.135239,225.953384 
	C157.634415,232.759430 176.004913,235.768097 194.408997,238.698227 
	C213.234787,241.695496 230.675217,248.291458 246.795227,259.218445 
z"/>
<path fill="#4FA8DE" opacity="1.000000" stroke="none" 
	d="
M192.380356,425.170105 
	C164.758591,430.342621 139.696060,441.237030 115.402672,454.219635 
	C115.144951,453.850494 114.887238,453.481384 114.629517,453.112274 
	C115.764076,451.827454 116.798576,450.435028 118.047806,449.273529 
	C150.481049,419.118225 188.994370,402.742126 232.959457,399.156586 
	C265.389404,396.511810 296.524628,402.273712 326.940186,413.670319 
	C352.090057,423.093903 378.123383,428.600067 405.245361,425.540649 
	C437.461487,421.906586 464.594452,407.885681 487.095123,384.684235 
	C488.007263,383.743713 488.892426,382.765045 489.893982,381.928497 
	C490.364685,381.535400 491.082428,381.438080 493.043457,380.689056 
	C491.415070,384.334717 490.527557,387.246185 488.949280,389.716278 
	C465.988770,425.650391 432.884918,444.742615 390.642670,448.058533 
	C363.045410,450.224823 336.812561,443.820435 310.949524,434.756348 
	C272.477417,421.273285 233.026077,417.967682 192.380356,425.170105 
z"/>
</svg>